<?xml version="1.0" standalone="no"?>
<!DOCTYPE svg PUBLIC "-//W3C//DTD SVG 20010904//EN"
 "http://www.w3.org/TR/2001/REC-SVG-20010904/DTD/svg10.dtd">
<svg version="1.0" xmlns="http://www.w3.org/2000/svg"
 width="169.000000pt" height="156.000000pt" viewBox="0 0 169.000000 156.000000"
 preserveAspectRatio="xMidYMid meet">

<g transform="translate(0.000000,156.000000) scale(0.100000,-0.100000)"
fill="#000000" stroke="none">
<path d="M0 780 l0 -780 845 0 845 0 0 780 0 780 -845 0 -845 0 0 -780z m833
546 c59 -21 77 -43 77 -91 0 -28 -9 -55 -28 -86 -35 -54 -48 -65 -92 -76 -51
-13 -46 -38 7 -37 53 1 108 41 134 98 24 53 24 92 -2 140 -34 64 -25 70 94 63
124 -8 165 -19 235 -63 63 -41 67 -67 12 -97 -84 -46 -116 -102 -108 -189 7
-65 33 -84 73 -54 19 14 19 15 -3 59 -46 93 -14 172 76 184 60 8 105 -12 160
-72 77 -84 103 -216 66 -340 -24 -84 -117 -155 -242 -185 -64 -15 -77 -30 -25
-30 48 0 87 -20 91 -45 4 -27 -40 -67 -163 -150 -55 -37 -118 -82 -140 -100
-68 -55 -198 -136 -214 -133 -27 6 -21 23 44 123 36 55 65 102 65 105 0 3 -20
5 -45 5 -28 0 -51 7 -62 17 -15 16 -15 19 11 50 64 79 168 247 182 296 24 80
1 212 -36 212 -16 0 -12 -30 12 -97 l23 -63 -20 -37 c-34 -62 -103 -132 -143
-143 -57 -15 -239 -13 -245 3 -3 8 2 43 10 78 34 146 -34 291 -138 293 -59 1
-58 -16 0 -44 111 -52 149 -145 101 -245 -41 -85 -163 -116 -260 -66 -131 69
-201 147 -208 235 -6 73 21 122 122 221 213 210 437 311 579 261z"/>
</g>
</svg>
